<mxfile host="65bd71144e">
    <diagram id="N7BpWPBrls_A_gjUbuym" name="Page-1">
        <mxGraphModel dx="379" dy="305" grid="1" gridSize="10" guides="1" tooltips="1" connect="1" arrows="1" fold="1" page="1" pageScale="1" pageWidth="827" pageHeight="1169" math="0" shadow="0">
            <root>
                <mxCell id="0"/>
                <mxCell id="1" parent="0"/>
                <mxCell id="40" value="" style="edgeStyle=none;html=1;strokeWidth=3;" parent="1" source="41" target="43" edge="1">
                    <mxGeometry relative="1" as="geometry"/>
                </mxCell>
                <mxCell id="41" value="selectSuit&lt;br&gt;(i, suitSize[], suitPrice[])" style="strokeWidth=3;html=1;shape=mxgraph.flowchart.terminator;whiteSpace=wrap;fillColor=#d80073;strokeColor=#A50040;shadow=1;fontColor=#ffffff;" parent="1" vertex="1">
                    <mxGeometry x="119.18" y="10" width="150" height="90" as="geometry"/>
                </mxCell>
                <mxCell id="42" value="" style="edgeStyle=none;html=1;strokeWidth=3;" parent="1" source="43" target="45" edge="1">
                    <mxGeometry relative="1" as="geometry"/>
                </mxCell>
                <mxCell id="43" value="&lt;span style=&quot;color: rgb(255, 255, 255);&quot;&gt;Prompt:&lt;/span&gt;&lt;br&gt;&lt;span style=&quot;color: rgb(255, 255, 255);&quot;&gt;&quot;Please choose your suit size (S/M/L/XL): &quot;&lt;/span&gt;" style="shape=parallelogram;perimeter=parallelogramPerimeter;whiteSpace=wrap;html=1;fixedSize=1;fillColor=#008a00;strokeColor=#005700;fontColor=#ffffff;strokeWidth=3;shadow=1;" parent="1" vertex="1">
                    <mxGeometry x="50" y="150" width="288.33" height="60" as="geometry"/>
                </mxCell>
                <mxCell id="45" value="Input:&lt;br&gt;suitSize[i]" style="shape=parallelogram;perimeter=parallelogramPerimeter;whiteSpace=wrap;html=1;fixedSize=1;fillColor=#e3c800;strokeColor=#B09500;fontColor=#FFFFFF;strokeWidth=3;shadow=1;labelBackgroundColor=none;labelBorderColor=none;textShadow=0;" parent="1" vertex="1">
                    <mxGeometry x="134.165" y="260" width="120" height="60" as="geometry"/>
                </mxCell>
                <mxCell id="56" value="suitSize[i] == &quot;S&quot;" style="rhombus;whiteSpace=wrap;html=1;fillColor=#1ba1e2;fontColor=#ffffff;strokeColor=#006EAF;strokeWidth=3;" parent="1" vertex="1">
                    <mxGeometry x="124.17999999999999" y="480" width="140" height="140" as="geometry"/>
                </mxCell>
                <mxCell id="58" value="suitPrice[i] = 2" style="whiteSpace=wrap;html=1;fillColor=#fa6800;strokeColor=#C73500;fontColor=#FFFFFF;strokeWidth=3;" parent="1" vertex="1">
                    <mxGeometry x="319.16999999999996" y="520" width="120" height="60" as="geometry"/>
                </mxCell>
                <mxCell id="61" value="" style="edgeStyle=none;html=1;strokeWidth=3;exitX=0.5;exitY=1;exitDx=0;exitDy=0;rounded=0;curved=0;" parent="1" edge="1">
                    <mxGeometry relative="1" as="geometry">
                        <mxPoint x="379.29999999999995" y="580" as="sourcePoint"/>
                        <mxPoint x="193" y="650" as="targetPoint"/>
                        <Array as="points">
                            <mxPoint x="380" y="650"/>
                        </Array>
                    </mxGeometry>
                </mxCell>
                <mxCell id="62" value="suitSize[i] == &quot;M&quot;" style="rhombus;whiteSpace=wrap;html=1;fillColor=#1ba1e2;fontColor=#ffffff;strokeColor=#006EAF;strokeWidth=3;" parent="1" vertex="1">
                    <mxGeometry x="124.17999999999999" y="670" width="140" height="140" as="geometry"/>
                </mxCell>
                <mxCell id="63" value="suitPrice[i] = 4" style="whiteSpace=wrap;html=1;fillColor=#fa6800;strokeColor=#C73500;fontColor=#FFFFFF;strokeWidth=3;" parent="1" vertex="1">
                    <mxGeometry x="319.16999999999996" y="710" width="120" height="60" as="geometry"/>
                </mxCell>
                <mxCell id="66" value="" style="edgeStyle=none;html=1;strokeWidth=3;exitX=0.5;exitY=1;exitDx=0;exitDy=0;rounded=0;curved=0;" parent="1" edge="1">
                    <mxGeometry relative="1" as="geometry">
                        <mxPoint x="379.29999999999995" y="770" as="sourcePoint"/>
                        <mxPoint x="193" y="840" as="targetPoint"/>
                        <Array as="points">
                            <mxPoint x="380" y="840"/>
                        </Array>
                    </mxGeometry>
                </mxCell>
                <mxCell id="67" value="suitSize[i] == &quot;L&quot;" style="rhombus;whiteSpace=wrap;html=1;fillColor=#1ba1e2;fontColor=#ffffff;strokeColor=#006EAF;strokeWidth=3;" parent="1" vertex="1">
                    <mxGeometry x="124.17999999999999" y="860" width="140" height="140" as="geometry"/>
                </mxCell>
                <mxCell id="68" value="suitPrice[i] = 6" style="whiteSpace=wrap;html=1;fillColor=#fa6800;strokeColor=#C73500;fontColor=#FFFFFF;strokeWidth=3;" parent="1" vertex="1">
                    <mxGeometry x="319.16999999999996" y="900" width="120" height="60" as="geometry"/>
                </mxCell>
                <mxCell id="71" value="" style="edgeStyle=none;html=1;strokeWidth=3;exitX=0.5;exitY=1;exitDx=0;exitDy=0;rounded=0;curved=0;" parent="1" edge="1">
                    <mxGeometry relative="1" as="geometry">
                        <mxPoint x="379.29999999999995" y="960" as="sourcePoint"/>
                        <mxPoint x="190" y="1030" as="targetPoint"/>
                        <Array as="points">
                            <mxPoint x="380" y="1030"/>
                        </Array>
                    </mxGeometry>
                </mxCell>
                <mxCell id="72" value="suitSize[i] == &quot;XL&quot;" style="rhombus;whiteSpace=wrap;html=1;fillColor=#1ba1e2;fontColor=#ffffff;strokeColor=#006EAF;strokeWidth=3;" parent="1" vertex="1">
                    <mxGeometry x="124.17999999999999" y="1050" width="140" height="140" as="geometry"/>
                </mxCell>
                <mxCell id="73" value="suitPrice[i] = 8" style="whiteSpace=wrap;html=1;fillColor=#fa6800;strokeColor=#C73500;fontColor=#FFFFFF;strokeWidth=3;" parent="1" vertex="1">
                    <mxGeometry x="319.16999999999996" y="1090" width="120" height="60" as="geometry"/>
                </mxCell>
                <mxCell id="76" value="" style="edgeStyle=none;html=1;strokeWidth=3;exitX=0.5;exitY=1;exitDx=0;exitDy=0;rounded=0;curved=0;" parent="1" edge="1">
                    <mxGeometry relative="1" as="geometry">
                        <mxPoint x="379.29999999999995" y="1150" as="sourcePoint"/>
                        <mxPoint x="193" y="1220" as="targetPoint"/>
                        <Array as="points">
                            <mxPoint x="380" y="1220"/>
                        </Array>
                    </mxGeometry>
                </mxCell>
                <mxCell id="81" value="&lt;font style=&quot;color: rgb(255, 255, 255);&quot;&gt;suitSize[i] =&lt;br&gt;getValidSizeInput&lt;br&gt;(&quot;suit size&quot;)&lt;/font&gt;" style="whiteSpace=wrap;html=1;fillColor=#fa6800;strokeColor=#C73500;fontColor=#000000;strokeWidth=3;" vertex="1" parent="1">
                    <mxGeometry x="134.16000000000003" y="370" width="120" height="60" as="geometry"/>
                </mxCell>
                <mxCell id="82" value="" style="edgeStyle=none;html=1;strokeWidth=3;" edge="1" parent="1">
                    <mxGeometry relative="1" as="geometry">
                        <mxPoint x="193.88" y="320" as="sourcePoint"/>
                        <mxPoint x="193.88" y="370" as="targetPoint"/>
                    </mxGeometry>
                </mxCell>
                <mxCell id="84" value="" style="edgeStyle=none;html=1;strokeWidth=3;" edge="1" parent="1">
                    <mxGeometry relative="1" as="geometry">
                        <mxPoint x="193.85999999999999" y="430" as="sourcePoint"/>
                        <mxPoint x="193.85999999999999" y="480" as="targetPoint"/>
                    </mxGeometry>
                </mxCell>
                <mxCell id="85" value="return&lt;br&gt;suitPrice[]" style="strokeWidth=3;html=1;shape=mxgraph.flowchart.terminator;whiteSpace=wrap;fillColor=#d80073;strokeColor=#A50040;shadow=1;fontColor=#ffffff;" vertex="1" parent="1">
                    <mxGeometry x="119.16000000000003" y="1240" width="150" height="90" as="geometry"/>
                </mxCell>
                <mxCell id="86" value="True" style="edgeStyle=none;orthogonalLoop=1;jettySize=auto;html=1;strokeWidth=3;exitX=1;exitY=0.5;exitDx=0;exitDy=0;entryX=0;entryY=0.5;entryDx=0;entryDy=0;" edge="1" parent="1" source="56" target="58">
                    <mxGeometry x="-0.4246" width="100" relative="1" as="geometry">
                        <mxPoint x="250" y="600" as="sourcePoint"/>
                        <mxPoint x="350" y="600" as="targetPoint"/>
                        <Array as="points"/>
                        <mxPoint as="offset"/>
                    </mxGeometry>
                </mxCell>
                <mxCell id="89" value="False" style="edgeStyle=none;orthogonalLoop=1;jettySize=auto;html=1;strokeWidth=3;exitX=0.5;exitY=1;exitDx=0;exitDy=0;entryX=0.5;entryY=0;entryDx=0;entryDy=0;" edge="1" parent="1" source="56" target="62">
                    <mxGeometry x="-0.4246" width="100" relative="1" as="geometry">
                        <mxPoint x="254.16" y="600" as="sourcePoint"/>
                        <mxPoint x="309.16" y="600" as="targetPoint"/>
                        <Array as="points"/>
                        <mxPoint as="offset"/>
                    </mxGeometry>
                </mxCell>
                <mxCell id="91" value="True" style="edgeStyle=none;orthogonalLoop=1;jettySize=auto;html=1;strokeWidth=3;exitX=1;exitY=0.5;exitDx=0;exitDy=0;entryX=0;entryY=0.5;entryDx=0;entryDy=0;" edge="1" parent="1">
                    <mxGeometry x="-0.4246" width="100" relative="1" as="geometry">
                        <mxPoint x="264.18" y="739.76" as="sourcePoint"/>
                        <mxPoint x="319.18" y="739.76" as="targetPoint"/>
                        <Array as="points"/>
                        <mxPoint as="offset"/>
                    </mxGeometry>
                </mxCell>
                <mxCell id="92" value="False" style="edgeStyle=none;orthogonalLoop=1;jettySize=auto;html=1;strokeWidth=3;exitX=0.5;exitY=1;exitDx=0;exitDy=0;entryX=0.5;entryY=0;entryDx=0;entryDy=0;" edge="1" parent="1">
                    <mxGeometry x="-0.4246" width="100" relative="1" as="geometry">
                        <mxPoint x="193.92000000000002" y="810" as="sourcePoint"/>
                        <mxPoint x="193.92000000000002" y="860" as="targetPoint"/>
                        <Array as="points"/>
                        <mxPoint as="offset"/>
                    </mxGeometry>
                </mxCell>
                <mxCell id="93" value="False" style="edgeStyle=none;orthogonalLoop=1;jettySize=auto;html=1;strokeWidth=3;exitX=0.5;exitY=1;exitDx=0;exitDy=0;entryX=0.5;entryY=0;entryDx=0;entryDy=0;" edge="1" parent="1">
                    <mxGeometry x="-0.4246" width="100" relative="1" as="geometry">
                        <mxPoint x="193.94" y="1000" as="sourcePoint"/>
                        <mxPoint x="193.94" y="1050" as="targetPoint"/>
                        <Array as="points"/>
                        <mxPoint as="offset"/>
                    </mxGeometry>
                </mxCell>
                <mxCell id="94" value="False" style="edgeStyle=none;orthogonalLoop=1;jettySize=auto;html=1;strokeWidth=3;exitX=0.5;exitY=1;exitDx=0;exitDy=0;entryX=0.5;entryY=0;entryDx=0;entryDy=0;" edge="1" parent="1">
                    <mxGeometry x="-0.4246" width="100" relative="1" as="geometry">
                        <mxPoint x="193.94" y="1190" as="sourcePoint"/>
                        <mxPoint x="193.94" y="1240" as="targetPoint"/>
                        <Array as="points"/>
                        <mxPoint as="offset"/>
                    </mxGeometry>
                </mxCell>
                <mxCell id="95" value="True" style="edgeStyle=none;orthogonalLoop=1;jettySize=auto;html=1;strokeWidth=3;exitX=1;exitY=0.5;exitDx=0;exitDy=0;entryX=0;entryY=0.5;entryDx=0;entryDy=0;" edge="1" parent="1">
                    <mxGeometry x="-0.4246" width="100" relative="1" as="geometry">
                        <mxPoint x="264.17" y="1119.71" as="sourcePoint"/>
                        <mxPoint x="319.17" y="1119.71" as="targetPoint"/>
                        <Array as="points"/>
                        <mxPoint as="offset"/>
                    </mxGeometry>
                </mxCell>
                <mxCell id="96" value="True" style="edgeStyle=none;orthogonalLoop=1;jettySize=auto;html=1;strokeWidth=3;exitX=1;exitY=0.5;exitDx=0;exitDy=0;entryX=0;entryY=0.5;entryDx=0;entryDy=0;" edge="1" parent="1">
                    <mxGeometry x="-0.4246" width="100" relative="1" as="geometry">
                        <mxPoint x="264.18" y="929.8000000000001" as="sourcePoint"/>
                        <mxPoint x="319.18" y="929.8000000000001" as="targetPoint"/>
                        <Array as="points"/>
                        <mxPoint as="offset"/>
                    </mxGeometry>
                </mxCell>
            </root>
        </mxGraphModel>
    </diagram>
</mxfile>